<?xml version="1.0" encoding="iso-8859-1"?>
<!-- Generator: Adobe Illustrator 16.0.0, SVG Export Plug-In . SVG Version: 6.00 Build 0)  -->
<!DOCTYPE svg PUBLIC "-//W3C//DTD SVG 1.1//EN" "http://www.w3.org/Graphics/SVG/1.1/DTD/svg11.dtd">
<svg version="1.1" id="Capa_1" xmlns="http://www.w3.org/2000/svg" xmlns:xlink="http://www.w3.org/1999/xlink" x="0px" y="0px"
	 width="80px" height="80px" viewBox="0 0 80 80" style="enable-background:new 0 0 80 80;" xml:space="preserve">
<g>
	<g>
		<path d="M40,80c22.092,0,40-17.909,40-40C80,17.908,62.092,0,40,0C17.909,0,0,17.908,0,40C0,62.091,17.909,80,40,80z
			 M57.334,26.164c0-0.553,0.448-1,1-1h0.588c2.219,0,4.023,1.805,4.023,4.023v21.594c0,2.22-1.805,4.024-4.023,4.024h-0.588
			c-0.552,0-1-0.446-1-1V26.164z M35.739,20.123h11.215c2.22,0,4.024,1.806,4.024,4.024c0,0.553-0.448,1-1,1c-0.553,0-1-0.447-1-1
			c0-1.116-0.908-2.024-2.024-2.024H35.739c-1.116,0-2.024,0.908-2.024,2.024c0,0.553-0.448,1-1,1c-0.552,0-1-0.447-1-1
			C31.715,21.929,33.52,20.123,35.739,20.123z M27.489,26.164c0-0.553,0.448-1,1-1h25.389c0.552,0,1,0.447,1,1v27.643
			c0,0.553-0.448,1-1,1H28.489c-0.552,0-1-0.447-1-1V26.164z M19.368,29.188c0-2.219,1.805-4.023,4.024-4.023h0.641
			c0.552,0,1,0.447,1,1v27.643c0,0.554-0.448,1-1,1h-0.641c-2.219,0-4.024-1.806-4.024-4.024V29.188z"/>
	</g>
</g>
<g>
</g>
<g>
</g>
<g>
</g>
<g>
</g>
<g>
</g>
<g>
</g>
<g>
</g>
<g>
</g>
<g>
</g>
<g>
</g>
<g>
</g>
<g>
</g>
<g>
</g>
<g>
</g>
<g>
</g>
</svg>
